<svg id="visual" viewBox="0 0 900 600" width="900" height="600"
    xmlns="http://www.w3.org/2000/svg"
    xmlns:xlink="http://www.w3.org/1999/xlink" version="1.1">
    <rect x="0" y="0" width="900" height="600" fill="#001220"></rect>
    <defs>
        <linearGradient id="grad1_0" x1="33.3%" y1="0%" x2="100%" y2="100%">
            <stop offset="20%" stop-color="#001220" stop-opacity="1"></stop>
            <stop offset="80%" stop-color="#001220" stop-opacity="1"></stop>
        </linearGradient>
    </defs>
    <defs>
        <linearGradient id="grad2_0" x1="0%" y1="0%" x2="66.7%" y2="100%">
            <stop offset="20%" stop-color="#001220" stop-opacity="1"></stop>
            <stop offset="80%" stop-color="#001220" stop-opacity="1"></stop>
        </linearGradient>
    </defs>
    <g transform="translate(900, 0)">
        <path d="M0 297C-49.5 320.6 -99 344.2 -135.9 328C-172.7 311.7 -197 255.6 -215 215C-233 174.3 -244.7 149.2 -279.9 116C-315.2 82.7 -373.9 41.4 -432.7 0L0 0Z" fill="#FBAE3C"></path>
    </g>
    <g transform="translate(0, 600)">
        <path d="M0 -432.7C60.5 -417 121.1 -401.4 148.1 -357.5C175.1 -313.7 168.7 -241.7 207.2 -207.2C245.7 -172.7 329.1 -175.6 355.7 -147.3C382.3 -119 352.2 -59.5 322 0L0 0Z" fill="#FBAE3C"></path>
    </g>
</svg>